<svg xmlns="http://www.w3.org/2000/svg" width="680" height="280" viewBox="0 0 680 280">
  <defs>
    <pattern id="grid" width="34" height="34" patternUnits="userSpaceOnUse">
      <path d="M34 0 H0 V34" fill="none" stroke="#34d399" stroke-opacity="0.07" stroke-width="1"/>
    </pattern>
    <filter id="glow" x="-20%" y="-20%" width="140%" height="140%">
      <feGaussianBlur stdDeviation="4" result="b"/><feMerge><feMergeNode in="b"/><feMergeNode in="SourceGraphic"/></feMerge>
    </filter>
  </defs>
  <rect width="680" height="280" rx="22" fill="#0b1320"/>
  <rect width="680" height="280" rx="22" fill="url(#grid)"/>
  <text x="34" y="44" font-family="-apple-system, 'Noto Sans KR', sans-serif" font-size="22" font-weight="700" fill="#34d399">♥ 닿BPM</text>
  <text x="646" y="44" text-anchor="end" font-family="-apple-system, sans-serif" font-size="16" letter-spacing="3" font-weight="600" fill="#5b7187">DAH · LIVE</text>
  <path d="M0 170 H88 L112 170 L128 170 L144 60 L160 250 L176 170 L192 170 H264 L292 170 L308 60 L324 250 L340 170 L356 170 H428 L456 170 L472 60 L488 250 L504 170 L520 170 H680"
        fill="none" stroke="#34d399" stroke-width="5" stroke-linecap="round" stroke-linejoin="round" filter="url(#glow)"/>
  <text x="144" y="46" text-anchor="middle" font-family="-apple-system, 'Noto Sans KR', sans-serif" font-size="46" font-weight="800" fill="#eafff7" filter="url(#glow)">닿</text>
  <text x="308" y="46" text-anchor="middle" font-family="-apple-system, 'Noto Sans KR', sans-serif" font-size="46" font-weight="800" fill="#eafff7" filter="url(#glow)">닿</text>
  <text x="472" y="46" text-anchor="middle" font-family="-apple-system, 'Noto Sans KR', sans-serif" font-size="46" font-weight="800" fill="#eafff7" filter="url(#glow)">닿</text>
  <text x="340" y="252" text-anchor="middle" font-family="-apple-system, 'Noto Sans KR', sans-serif" font-size="20" font-weight="600" fill="#7d93a8">닿을 때마다 다시 뛴다 · 삐삐삐 → 닿닿닿</text>
</svg>
